<svg width="795" height="327" viewBox="0 0 795 327" fill="none" xmlns="http://www.w3.org/2000/svg">
<mask id="mask0_9829_357" style="mask-type:alpha" maskUnits="userSpaceOnUse" x="0" y="0" width="795" height="327">
<rect width="795" height="327" rx="8" fill="white"/>
</mask>
<g mask="url(#mask0_9829_357)">
<rect y="44" width="847" height="283" rx="8" fill="white" fill-opacity="0.25"/>
<circle cx="37" cy="13" r="13" fill="#F5B245"/>
<circle cx="662" cy="82" r="13" fill="white"/>
<path d="M675 327C675 310.557 668.468 294.787 656.841 283.159C645.213 271.532 629.443 265 613 265C596.557 265 580.787 271.532 569.159 283.159C557.532 294.787 551 310.557 551 327H567.065C567.065 314.817 571.905 303.134 580.519 294.519C589.134 285.905 600.817 281.065 613 281.065C625.183 281.065 636.866 285.905 645.481 294.519C654.095 303.134 658.935 314.817 658.935 327H675Z" fill="#F0846B"/>
<circle cx="73.5" cy="124.5" r="36.5" fill="white"/>
</g>
</svg>
