<svg width="994" height="629" viewBox="0 0 994 629" fill="none" xmlns="http://www.w3.org/2000/svg">
<mask id="mask0_9786_3090" style="mask-type:alpha" maskUnits="userSpaceOnUse" x="1" y="0" width="993" height="629">
<rect x="1" width="993" height="629" rx="16" fill="#C5649F"/>
</mask>
<g mask="url(#mask0_9786_3090)">
<path d="M994 564C976.496 564 959.708 557.046 947.331 544.669C934.954 532.292 928 515.504 928 498C928 480.496 934.954 463.708 947.331 451.331C959.708 438.954 976.496 432 994 432L994 498L994 564Z" fill="#E19DC6"/>
<path d="M2.17033e-06 232C24.1347 232 47.2809 222.413 64.3467 205.347C81.4125 188.281 91 165.135 91 141C91 116.865 81.4125 93.7191 64.3467 76.6533C47.2809 59.5875 24.1347 50 1.52588e-05 50L7.91058e-06 73.5793C17.8811 73.5793 35.0298 80.6826 47.6736 93.3264C60.3174 105.97 67.4207 123.119 67.4207 141C67.4207 158.881 60.3174 176.03 47.6736 188.674C35.0298 201.317 17.8811 208.421 1.88915e-06 208.421L2.17033e-06 232Z" fill="#E19DC6"/>
</g>
</svg>
