<svg width="795" height="283" viewBox="0 0 795 283" fill="none" xmlns="http://www.w3.org/2000/svg">
<mask id="mask0_9823_358" style="mask-type:alpha" maskUnits="userSpaceOnUse" x="0" y="0" width="795" height="283">
<rect width="795" height="283" rx="8" fill="#FEDA9F"/>
</mask>
<g mask="url(#mask0_9823_358)">
<rect width="847" height="283" rx="8" fill="#FEDA9F"/>
<circle cx="662" cy="38" r="13" fill="white"/>
<path d="M675 283C675 266.557 668.468 250.787 656.841 239.159C645.213 227.532 629.443 221 613 221C596.557 221 580.787 227.532 569.159 239.159C557.532 250.787 551 266.557 551 283H567.065C567.065 270.817 571.905 259.134 580.519 250.519C589.134 241.905 600.817 237.065 613 237.065C625.183 237.065 636.866 241.905 645.481 250.519C654.095 259.134 658.935 270.817 658.935 283H675Z" fill="#F0846B"/>
<circle cx="73.5" cy="80.5" r="36.5" fill="white"/>
</g>
</svg>
