<svg width="1440" height="387" viewBox="0 0 1440 387" fill="none" xmlns="http://www.w3.org/2000/svg">
<path d="M1.47869e-06 387C16.4434 387 32.2134 380.468 43.8406 368.841C55.4679 357.213 62 341.443 62 325C62 308.557 55.4679 292.787 43.8406 281.159C32.2134 269.532 16.4434 263 7.62939e-06 263L7.82097e-06 279.065C12.1827 279.065 23.8664 283.905 32.4809 292.519C41.0954 301.134 45.935 312.817 45.935 325C45.935 337.183 41.0954 348.866 32.4809 357.481C23.8664 366.095 12.1827 370.935 1.28711e-06 370.935L1.47869e-06 387Z" fill="#F5B245"/>
<path d="M1440 -2.71011e-06C1423.56 -1.99134e-06 1407.79 6.53212 1396.16 18.1594C1384.53 29.7866 1378 45.5566 1378 62C1378 78.4434 1384.53 94.2134 1396.16 105.841C1407.79 117.468 1423.56 124 1440 124L1440 107.935C1427.82 107.935 1416.13 103.095 1407.52 94.4809C1398.9 85.8664 1394.07 74.1827 1394.07 62C1394.07 49.8173 1398.9 38.1336 1407.52 29.5191C1416.13 20.9046 1427.82 16.065 1440 16.065L1440 -2.71011e-06Z" fill="#6EBDCC"/>
</svg>
