<svg width="1460" height="741" viewBox="0 0 1460 741" fill="none" xmlns="http://www.w3.org/2000/svg">
<path d="M1.47869e-06 156C16.4434 156 32.2134 149.468 43.8406 137.841C55.4679 126.213 62 110.443 62 94C62 77.5566 55.4679 61.7866 43.8406 50.1594C32.2134 38.5321 16.4434 32 7.62939e-06 32L7.82097e-06 48.065C12.1827 48.0651 23.8664 52.9046 32.4809 61.5191C41.0954 70.1336 45.935 81.8173 45.935 94C45.935 106.183 41.0954 117.866 32.4809 126.481C23.8664 135.095 12.1827 139.935 1.28711e-06 139.935L1.47869e-06 156Z" fill="#F5B245"/>
<circle cx="86" cy="642" r="99" fill="white"/>
<circle cx="1371" cy="89" r="89" fill="#F0846B"/>
<circle cx="1401.5" cy="372.5" r="22.5" fill="#80BCCA"/>
<circle cx="1401.5" cy="372.5" r="22.5" fill="#80BCCA"/>
</svg>
