<svg width="758" height="327" viewBox="0 0 758 327" fill="none" xmlns="http://www.w3.org/2000/svg">
<mask id="mask0_9786_3084" style="mask-type:alpha" maskUnits="userSpaceOnUse" x="0" y="44" width="758" height="283">
<rect y="44" width="758" height="283" rx="8" fill="#91D3DF"/>
</mask>
<g mask="url(#mask0_9786_3084)">
<rect y="44" width="847" height="283" rx="8" fill="#91D3DF"/>
<circle cx="73.5" cy="124.5" r="36.5" fill="white"/>
<circle cx="707" cy="82" r="13" fill="white"/>
<path d="M712 327C712 310.557 705.468 294.787 693.841 283.159C682.213 271.532 666.443 265 650 265C633.557 265 617.787 271.532 606.159 283.159C594.532 294.787 588 310.557 588 327H604.065C604.065 314.817 608.905 303.134 617.519 294.519C626.134 285.905 637.817 281.065 650 281.065C662.183 281.065 673.866 285.905 682.481 294.519C691.095 303.134 695.935 314.817 695.935 327H712Z" fill="#F0846B"/>
</g>
<circle cx="37" cy="13" r="13" fill="#F5B245"/>
</svg>
