<svg width="11" height="26" viewBox="0 0 11 26" fill="none" xmlns="http://www.w3.org/2000/svg">
<path d="M5.90625 12.2305V14.5273H7.21875C7.51953 14.5273 7.65625 14.8828 7.46484 15.0742L5.49609 17.043C5.35938 17.1797 5.11328 17.1797 4.97656 17.043L3.00781 15.0742C2.81641 14.8828 2.95312 14.5273 3.25391 14.5273H4.59375V12.2305C4.59375 12.0391 4.73047 11.9023 4.92188 11.9023H5.57812C5.74219 11.9023 5.90625 12.0391 5.90625 12.2305ZM10.0898 8.42969C10.3359 8.67578 10.5 9.03125 10.5 9.35938V18.4648C10.5 19.1758 9.89844 19.75 9.16016 19.75H1.28516C0.574219 19.75 0 19.1758 0 18.4648V7.08984C0 6.35156 0.574219 5.77734 1.28516 5.75H6.89062C7.21875 5.75 7.54688 5.91406 7.79297 6.16016L10.0898 8.42969ZM6.97266 7.17188V9.27734H9.07812L6.97266 7.17188ZM9.1875 18.4648V10.5898H6.31641C5.96094 10.5898 5.66016 10.2891 5.66016 9.93359V7.08984H1.28516V18.4648H9.1875Z" fill="#1A4A75"/>
</svg>
