<svg width="18" height="21" viewBox="0 0 18 21" fill="none" xmlns="http://www.w3.org/2000/svg">
<path d="M5 6.4375V5.1875C5 5.03125 5.11719 4.875 5.3125 4.875H13.4375C13.5938 4.875 13.75 5.03125 13.75 5.1875V6.4375C13.75 6.63281 13.5938 6.75 13.4375 6.75H5.3125C5.11719 6.75 5 6.63281 5 6.4375ZM5.3125 9.875C5.11719 9.875 5 9.75781 5 9.5625V8.3125C5 8.15625 5.11719 8 5.3125 8H13.4375C13.5938 8 13.75 8.15625 13.75 8.3125V9.5625C13.75 9.75781 13.5938 9.875 13.4375 9.875H5.3125ZM16.9922 16.125C16.7969 16.6328 16.7969 18.1562 16.9922 18.6641C17.2656 18.7031 17.5 18.9766 17.5 19.25V19.875C17.5 20.2266 17.1875 20.5 16.875 20.5H3.125C1.36719 20.5 0 19.1328 0 17.375V3.625C0 1.90625 1.36719 0.5 3.125 0.5H16.875C17.1875 0.5 17.5 0.8125 17.5 1.125V15.5C17.5 15.8125 17.2656 16.0859 16.9922 16.125ZM15.3906 16.125H3.125C2.42188 16.125 1.875 16.7109 1.875 17.375C1.875 18.0781 2.42188 18.625 3.125 18.625H15.3906C15.2734 17.9609 15.2734 16.8281 15.3906 16.125ZM15.625 2.375H3.125C2.42188 2.375 1.875 2.96094 1.875 3.625V14.5234C2.22656 14.3672 2.65625 14.25 3.125 14.25H15.625V2.375Z" fill="black"/>
</svg>
