<svg width="20" height="21" viewBox="0 0 20 21" fill="none" xmlns="http://www.w3.org/2000/svg">
<path d="M10 0.8125C15.3516 0.8125 19.6875 5.14844 19.6875 10.5C19.6875 15.8516 15.3516 20.1875 10 20.1875C4.64844 20.1875 0.3125 15.8516 0.3125 10.5C0.3125 5.14844 4.64844 0.8125 10 0.8125ZM10 18.3125C14.2969 18.3125 17.8125 14.8359 17.8125 10.5C17.8125 6.20312 14.2969 2.6875 10 2.6875C5.66406 2.6875 2.1875 6.20312 2.1875 10.5C2.1875 14.8359 5.66406 18.3125 10 18.3125ZM12.3828 14.25L9.0625 11.8281C8.94531 11.75 8.90625 11.5938 8.90625 11.4766V5.03125C8.90625 4.79688 9.10156 4.5625 9.375 4.5625H10.625C10.8594 4.5625 11.0938 4.79688 11.0938 5.03125V10.5781L13.6719 12.4922C13.9062 12.6484 13.9453 12.9219 13.7891 13.1562L13.0469 14.1328C12.8906 14.3672 12.6172 14.4062 12.3828 14.25Z" fill="black"/>
</svg>
