<svg width="20" height="21" viewBox="0 0 20 21" fill="none" xmlns="http://www.w3.org/2000/svg">
<path d="M18.4375 0.5C19.2578 0.5 20 1.00781 20 1.82812V14.5625C20 15.1094 19.6484 15.5781 19.1016 15.7734C17.1875 16.5156 15.625 16.75 14.2578 16.75C11.0938 16.75 8.86719 15.4219 5.70312 15.4219C4.57031 15.4219 3.32031 15.6172 1.875 16.0859V20.0312C1.875 20.3047 1.64062 20.5 1.40625 20.5H0.46875C0.195312 20.5 0 20.3047 0 20.0312V1.4375C0 0.929688 0.390625 0.5 0.9375 0.5C1.36719 0.5 1.71875 0.8125 1.79688 1.24219C3.47656 0.734375 4.80469 0.539062 5.89844 0.539062C8.86719 0.539062 10.3906 1.86719 12.9688 1.86719C14.1797 1.86719 15.625 1.59375 17.6172 0.695312C17.8906 0.578125 18.1641 0.5 18.4375 0.5ZM18.125 14.1719V2.53125C16.1719 3.35156 14.5312 3.74219 12.9688 3.74219C10 3.74219 8.47656 2.41406 5.89844 2.41406C4.72656 2.41406 3.39844 2.64844 1.83594 3.19531V14.0938C3.16406 13.7422 4.45312 13.5469 5.70312 13.5469C9.25781 13.5469 11.3281 14.875 14.2578 14.875C15.4688 14.875 16.7188 14.6406 18.125 14.1719Z" fill="black"/>
</svg>
