<svg width="23" height="15" viewBox="0 0 23 15" fill="none" xmlns="http://www.w3.org/2000/svg">
<path d="M20.5859 6.25C22.0703 6.25 22.9688 7.89062 22.1875 9.14062L19.0625 14.1406C18.7109 14.6875 18.125 15 17.5 15H1.875C0.820312 15 0 14.1797 0 13.125V1.875C0 0.859375 0.820312 0 1.875 0H8.125L10.625 2.5H16.875C17.8906 2.5 18.75 3.35938 18.75 4.375V6.25H20.5859ZM1.875 2.10938V11.25L4.29688 7.1875C4.64844 6.60156 5.27344 6.25 5.9375 6.25H16.875V4.60938C16.875 4.49219 16.7578 4.375 16.6406 4.375H9.84375L7.34375 1.875H2.10938C1.95312 1.875 1.875 1.99219 1.875 2.10938ZM17.5 13.125L20.625 8.125H5.82031L2.8125 13.125H17.5Z" fill="black"/>
</svg>
