<svg width="25" height="21" viewBox="0 0 25 21" fill="none" xmlns="http://www.w3.org/2000/svg">
<path d="M4.375 8C4.375 8.54688 3.94531 8.9375 3.4375 8.9375H0.9375C0.390625 8.9375 0 8.54688 0 8C0 7.49219 0.390625 7.0625 0.9375 7.0625H3.4375C3.94531 7.0625 4.375 7.49219 4.375 8ZM4.17969 11.75C4.29688 11.6719 4.49219 11.6328 4.60938 11.6328C5.11719 11.6328 5.54688 12.0234 5.54688 12.5703C5.54688 12.8438 5.35156 13.1953 5.11719 13.3516L2.92969 14.6016C2.8125 14.6797 2.57812 14.7578 2.46094 14.7578C1.95312 14.7578 1.52344 14.3281 1.52344 13.8203C1.52344 13.5078 1.71875 13.1562 1.99219 13L4.17969 11.75ZM5.11719 2.6875C5.35156 2.84375 5.58594 3.19531 5.58594 3.50781C5.58594 4.01562 5.15625 4.44531 4.64844 4.44531C4.49219 4.44531 4.29688 4.36719 4.17969 4.28906L1.99219 3.03906C1.71875 2.88281 1.52344 2.53125 1.52344 2.21875C1.52344 1.71094 1.95312 1.28125 2.46094 1.28125C2.57812 1.28125 2.8125 1.35938 2.92969 1.4375L5.11719 2.6875ZM20.3125 4.40625C19.8047 4.40625 19.375 4.01562 19.375 3.46875C19.375 3.19531 19.6094 2.84375 19.8438 2.6875L22.0312 1.4375C22.1484 1.35938 22.3438 1.32031 22.4609 1.32031C23.0078 1.32031 23.3984 1.71094 23.3984 2.25781C23.3984 2.53125 23.2031 2.88281 22.9688 3.03906L20.7812 4.28906C20.6641 4.36719 20.4688 4.40625 20.3125 4.40625ZM24.0625 7.0625C24.5703 7.0625 25 7.49219 25 8C25 8.54688 24.5703 8.9375 24.0625 8.9375H21.5625C21.0156 8.9375 20.625 8.54688 20.625 8C20.625 7.49219 21.0156 7.0625 21.5625 7.0625H24.0625ZM22.9688 13C23.2031 13.1562 23.3984 13.5078 23.3984 13.7812C23.3984 14.3281 23.0078 14.7188 22.4609 14.7188C22.3438 14.7188 22.1484 14.6797 22.0312 14.6016L19.8438 13.3516C19.6094 13.2344 19.375 12.8438 19.375 12.5312C19.375 12.0234 19.8047 11.5938 20.3125 11.5938C20.4688 11.5938 20.6641 11.6719 20.7812 11.75L22.9688 13ZM12.5 0.5C16.2891 0.5 19.375 3.58594 19.375 7.375C19.375 8.82031 18.5938 10.8516 17.6562 11.9062C16.9922 12.6484 15.9766 14.2109 15.625 15.5H13.75C13.75 15.3438 13.7891 15.1094 13.8281 14.9531C14.0234 14.25 14.7266 12.4141 16.25 10.6953C16.9141 9.91406 17.4609 8.42969 17.4609 7.375C17.4609 4.64062 15.2344 2.375 12.5 2.375C9.80469 2.375 7.46094 4.52344 7.5 7.375V7.41406C7.5 8.42969 8.04688 9.91406 8.71094 10.6953C10.2734 12.4531 10.9375 14.25 11.1328 14.9531C11.2109 15.1094 11.2109 15.3438 11.2109 15.5H9.33594C8.98438 14.2109 7.96875 12.6484 7.30469 11.9062C6.36719 10.8516 5.625 8.82031 5.625 7.41406V7.375C5.625 3.74219 8.47656 0.5 12.5 0.5ZM12.5 3.625C12.8125 3.625 13.125 3.9375 13.125 4.25C13.125 4.60156 12.8125 4.875 12.5 4.875C11.0938 4.91406 10 6.00781 10 7.375C10 7.72656 9.6875 8 9.375 8C9.02344 8 8.75 7.72656 8.75 7.375C8.75 5.34375 10.4297 3.66406 12.5 3.625ZM9.375 18.4688V16.75H15.625L15.5859 18.4688C15.5859 18.5469 15.5469 18.7031 15.5078 18.7812L14.5312 20.2266C14.4531 20.3828 14.2188 20.5 14.0234 20.5H10.9375C10.7422 20.5 10.5078 20.3828 10.4297 20.2266L9.45312 18.8203C9.41406 18.7031 9.375 18.5469 9.375 18.4688Z" fill="black"/>
</svg>
