<svg width="18" height="18" viewBox="0 0 18 18" fill="none" xmlns="http://www.w3.org/2000/svg">
<path d="M10.8125 7.1875C12.4062 8.78125 12.5 11.3438 11.0938 13.0312C10.9062 13.2812 11.0312 13.1562 8.46875 15.7188C6.75 17.4375 3.96875 17.4375 2.28125 15.7188C0.5625 14.0312 0.5625 11.25 2.28125 9.53125C3.28125 8.53125 3.875 7.9375 4.25 7.5625C4.46875 7.34375 4.875 7.5 4.875 7.8125C4.90625 8.15625 4.96875 8.6875 5.03125 9C5.0625 9.125 5.03125 9.25 4.9375 9.34375L3.5 10.7812C2.46875 11.8125 2.46875 13.4688 3.5 14.5C4.53125 15.5312 6.1875 15.5312 7.21875 14.5L9.5625 12.1562C10.5938 11.125 10.5938 9.46875 9.5625 8.4375C9.40625 8.25 9.0625 8.03125 8.84375 7.9375C8.71875 7.84375 8.625 7.6875 8.65625 7.53125C8.6875 7.1875 8.84375 6.84375 9.125 6.59375L9.25 6.46875C9.375 6.34375 9.53125 6.3125 9.6875 6.375C10.0938 6.59375 10.4688 6.84375 10.8125 7.1875ZM15.6875 2.3125C17.4062 4 17.4062 6.78125 15.6875 8.5C14.6875 9.5 14.0938 10.0938 13.7188 10.4688C13.5 10.6875 13.0938 10.5312 13.0938 10.2188C13.0625 9.875 13 9.34375 12.9375 9.03125C12.9062 8.90625 12.9375 8.78125 13.0312 8.6875L14.4688 7.25C15.5 6.21875 15.5 4.5625 14.4688 3.53125C13.4375 2.5 11.7812 2.5 10.75 3.53125L8.40625 5.875C7.375 6.90625 7.375 8.5625 8.40625 9.59375C8.5625 9.78125 8.90625 10 9.125 10.0938C9.25 10.1875 9.34375 10.3438 9.3125 10.5C9.28125 10.8438 9.125 11.1875 8.84375 11.4375L8.71875 11.5625C8.59375 11.6875 8.4375 11.7188 8.28125 11.6562C7.875 11.4375 7.5 11.1875 7.15625 10.8438C5.5625 9.25 5.46875 6.6875 6.875 5C7.0625 4.75 6.9375 4.875 9.5 2.3125C11.2188 0.59375 14 0.59375 15.6875 2.3125Z" fill="#3872FF"/>
</svg>
