<svg width="22" height="21" viewBox="0 0 22 21" fill="none" xmlns="http://www.w3.org/2000/svg">
<path d="M20.2578 2.72656C21.2344 3.70312 21.2344 5.26562 20.2578 6.24219L17.3281 9.17188L16 10.5L6.46875 20.0312L2.01562 20.5C1.97656 20.5 1.9375 20.5 1.89844 20.5C1.35156 20.5 0.921875 20.0312 1 19.4844L1.46875 15.0312L11 5.5L12.3281 4.17188L15.2578 1.24219C15.7266 0.773438 16.3906 0.5 17.0156 0.5C17.6406 0.5 18.3047 0.773438 18.7734 1.24219L20.2578 2.72656ZM5.60938 18.2344L14.6719 9.21094L15.8828 8L13.5 5.61719L12.2891 6.82812L3.26562 15.8906L2.99219 18.5078L5.60938 18.2344ZM18.9297 4.91406C19.1641 4.67969 19.1641 4.28906 18.9297 4.05469L17.4453 2.57031C17.2891 2.41406 17.0938 2.375 17.0156 2.375C16.9375 2.375 16.7422 2.41406 16.5859 2.57031L14.8281 4.28906L17.2109 6.67188L18.9297 4.91406Z" fill="black"/>
</svg>
